<mxfile host="app.diagrams.net" modified="2023-09-29T14:51:18.238Z" agent="Mozilla/5.0 (Macintosh; Intel Mac OS X 10_15_7) AppleWebKit/537.36 (KHTML, like Gecko) Chrome/117.0.0.0 Safari/537.36" etag="867mgpERbek1xBFywEp9" version="21.8.2" type="github">
  <diagram id="C5RBs43oDa-KdzZeNtuy" name="Page-1">
    <mxGraphModel dx="860" dy="1746" grid="1" gridSize="10" guides="1" tooltips="1" connect="1" arrows="1" fold="1" page="1" pageScale="1" pageWidth="827" pageHeight="1169" math="0" shadow="0">
      <root>
        <mxCell id="WIyWlLk6GJQsqaUBKTNV-0" />
        <mxCell id="WIyWlLk6GJQsqaUBKTNV-1" parent="WIyWlLk6GJQsqaUBKTNV-0" />
        <mxCell id="Dt_UoThpGrqsOZfqZ3MJ-19" style="edgeStyle=orthogonalEdgeStyle;rounded=0;orthogonalLoop=1;jettySize=auto;html=1;exitX=0;exitY=0.5;exitDx=0;exitDy=0;exitPerimeter=0;entryX=0.5;entryY=0;entryDx=0;entryDy=0;entryPerimeter=0;" parent="WIyWlLk6GJQsqaUBKTNV-1" source="Dt_UoThpGrqsOZfqZ3MJ-0" target="Dt_UoThpGrqsOZfqZ3MJ-17" edge="1">
          <mxGeometry relative="1" as="geometry" />
        </mxCell>
        <mxCell id="Dt_UoThpGrqsOZfqZ3MJ-0" value="Server" style="shape=cylinder3;whiteSpace=wrap;html=1;boundedLbl=1;backgroundOutline=1;size=15;" parent="WIyWlLk6GJQsqaUBKTNV-1" vertex="1">
          <mxGeometry x="400" y="-10" width="70" height="100" as="geometry" />
        </mxCell>
        <mxCell id="Dt_UoThpGrqsOZfqZ3MJ-22" style="edgeStyle=orthogonalEdgeStyle;rounded=0;orthogonalLoop=1;jettySize=auto;html=1;entryX=0.283;entryY=1;entryDx=0;entryDy=0;entryPerimeter=0;strokeColor=#FF0303;" parent="WIyWlLk6GJQsqaUBKTNV-1" source="Dt_UoThpGrqsOZfqZ3MJ-6" target="Dt_UoThpGrqsOZfqZ3MJ-17" edge="1">
          <mxGeometry relative="1" as="geometry" />
        </mxCell>
        <mxCell id="Dt_UoThpGrqsOZfqZ3MJ-27" style="edgeStyle=orthogonalEdgeStyle;rounded=0;orthogonalLoop=1;jettySize=auto;html=1;entryX=0.357;entryY=0;entryDx=0;entryDy=0;entryPerimeter=0;" parent="WIyWlLk6GJQsqaUBKTNV-1" source="Dt_UoThpGrqsOZfqZ3MJ-6" target="Dt_UoThpGrqsOZfqZ3MJ-23" edge="1">
          <mxGeometry relative="1" as="geometry" />
        </mxCell>
        <mxCell id="Dt_UoThpGrqsOZfqZ3MJ-6" value="Player 1" style="swimlane;fontStyle=0;childLayout=stackLayout;horizontal=1;startSize=30;horizontalStack=0;resizeParent=1;resizeParentMax=0;resizeLast=0;collapsible=1;marginBottom=0;whiteSpace=wrap;html=1;" parent="WIyWlLk6GJQsqaUBKTNV-1" vertex="1">
          <mxGeometry x="20" y="260" width="150" height="150" as="geometry">
            <mxRectangle x="100" y="130" width="60" height="30" as="alternateBounds" />
          </mxGeometry>
        </mxCell>
        <mxCell id="Dt_UoThpGrqsOZfqZ3MJ-10" value="position" style="text;strokeColor=none;fillColor=none;align=left;verticalAlign=middle;spacingLeft=4;spacingRight=4;overflow=hidden;points=[[0,0.5],[1,0.5]];portConstraint=eastwest;rotatable=0;whiteSpace=wrap;html=1;" parent="Dt_UoThpGrqsOZfqZ3MJ-6" vertex="1">
          <mxGeometry y="30" width="150" height="30" as="geometry" />
        </mxCell>
        <mxCell id="Dt_UoThpGrqsOZfqZ3MJ-7" value="health" style="text;strokeColor=none;fillColor=none;align=left;verticalAlign=middle;spacingLeft=4;spacingRight=4;overflow=hidden;points=[[0,0.5],[1,0.5]];portConstraint=eastwest;rotatable=0;whiteSpace=wrap;html=1;" parent="Dt_UoThpGrqsOZfqZ3MJ-6" vertex="1">
          <mxGeometry y="60" width="150" height="30" as="geometry" />
        </mxCell>
        <mxCell id="Dt_UoThpGrqsOZfqZ3MJ-9" value="projectiles" style="text;strokeColor=none;fillColor=none;align=left;verticalAlign=middle;spacingLeft=4;spacingRight=4;overflow=hidden;points=[[0,0.5],[1,0.5]];portConstraint=eastwest;rotatable=0;whiteSpace=wrap;html=1;" parent="Dt_UoThpGrqsOZfqZ3MJ-6" vertex="1">
          <mxGeometry y="90" width="150" height="30" as="geometry" />
        </mxCell>
        <mxCell id="Dt_UoThpGrqsOZfqZ3MJ-11" value="sprite" style="text;strokeColor=none;fillColor=none;align=left;verticalAlign=middle;spacingLeft=4;spacingRight=4;overflow=hidden;points=[[0,0.5],[1,0.5]];portConstraint=eastwest;rotatable=0;whiteSpace=wrap;html=1;" parent="Dt_UoThpGrqsOZfqZ3MJ-6" vertex="1">
          <mxGeometry y="120" width="150" height="30" as="geometry" />
        </mxCell>
        <mxCell id="Dt_UoThpGrqsOZfqZ3MJ-28" style="edgeStyle=orthogonalEdgeStyle;rounded=0;orthogonalLoop=1;jettySize=auto;html=1;entryX=0.607;entryY=0;entryDx=0;entryDy=0;entryPerimeter=0;" parent="WIyWlLk6GJQsqaUBKTNV-1" source="Dt_UoThpGrqsOZfqZ3MJ-12" target="Dt_UoThpGrqsOZfqZ3MJ-23" edge="1">
          <mxGeometry relative="1" as="geometry" />
        </mxCell>
        <mxCell id="Dt_UoThpGrqsOZfqZ3MJ-12" value="Player 2" style="swimlane;fontStyle=0;childLayout=stackLayout;horizontal=1;startSize=30;horizontalStack=0;resizeParent=1;resizeParentMax=0;resizeLast=0;collapsible=1;marginBottom=0;whiteSpace=wrap;html=1;" parent="WIyWlLk6GJQsqaUBKTNV-1" vertex="1">
          <mxGeometry x="240" y="260" width="150" height="150" as="geometry">
            <mxRectangle x="100" y="130" width="60" height="30" as="alternateBounds" />
          </mxGeometry>
        </mxCell>
        <mxCell id="Dt_UoThpGrqsOZfqZ3MJ-13" value="position" style="text;strokeColor=none;fillColor=none;align=left;verticalAlign=middle;spacingLeft=4;spacingRight=4;overflow=hidden;points=[[0,0.5],[1,0.5]];portConstraint=eastwest;rotatable=0;whiteSpace=wrap;html=1;" parent="Dt_UoThpGrqsOZfqZ3MJ-12" vertex="1">
          <mxGeometry y="30" width="150" height="30" as="geometry" />
        </mxCell>
        <mxCell id="Dt_UoThpGrqsOZfqZ3MJ-14" value="health" style="text;strokeColor=none;fillColor=none;align=left;verticalAlign=middle;spacingLeft=4;spacingRight=4;overflow=hidden;points=[[0,0.5],[1,0.5]];portConstraint=eastwest;rotatable=0;whiteSpace=wrap;html=1;" parent="Dt_UoThpGrqsOZfqZ3MJ-12" vertex="1">
          <mxGeometry y="60" width="150" height="30" as="geometry" />
        </mxCell>
        <mxCell id="Dt_UoThpGrqsOZfqZ3MJ-15" value="projectiles" style="text;strokeColor=none;fillColor=none;align=left;verticalAlign=middle;spacingLeft=4;spacingRight=4;overflow=hidden;points=[[0,0.5],[1,0.5]];portConstraint=eastwest;rotatable=0;whiteSpace=wrap;html=1;" parent="Dt_UoThpGrqsOZfqZ3MJ-12" vertex="1">
          <mxGeometry y="90" width="150" height="30" as="geometry" />
        </mxCell>
        <mxCell id="Dt_UoThpGrqsOZfqZ3MJ-16" value="sprite" style="text;strokeColor=none;fillColor=none;align=left;verticalAlign=middle;spacingLeft=4;spacingRight=4;overflow=hidden;points=[[0,0.5],[1,0.5]];portConstraint=eastwest;rotatable=0;whiteSpace=wrap;html=1;" parent="Dt_UoThpGrqsOZfqZ3MJ-12" vertex="1">
          <mxGeometry y="120" width="150" height="30" as="geometry" />
        </mxCell>
        <mxCell id="Dt_UoThpGrqsOZfqZ3MJ-18" style="edgeStyle=orthogonalEdgeStyle;rounded=0;orthogonalLoop=1;jettySize=auto;html=1;entryX=0.5;entryY=1;entryDx=0;entryDy=0;entryPerimeter=0;exitX=1;exitY=0;exitDx=0;exitDy=27.5;exitPerimeter=0;fillColor=#FF2D0D;strokeColor=#FF1900;" parent="WIyWlLk6GJQsqaUBKTNV-1" source="Dt_UoThpGrqsOZfqZ3MJ-17" target="Dt_UoThpGrqsOZfqZ3MJ-0" edge="1">
          <mxGeometry relative="1" as="geometry" />
        </mxCell>
        <mxCell id="Dt_UoThpGrqsOZfqZ3MJ-20" style="edgeStyle=orthogonalEdgeStyle;rounded=0;orthogonalLoop=1;jettySize=auto;html=1;" parent="WIyWlLk6GJQsqaUBKTNV-1" source="Dt_UoThpGrqsOZfqZ3MJ-17" target="Dt_UoThpGrqsOZfqZ3MJ-12" edge="1">
          <mxGeometry relative="1" as="geometry">
            <mxPoint x="140" y="200" as="targetPoint" />
            <Array as="points">
              <mxPoint x="130" y="200" />
              <mxPoint x="315" y="200" />
            </Array>
          </mxGeometry>
        </mxCell>
        <mxCell id="Dt_UoThpGrqsOZfqZ3MJ-17" value="Client" style="shape=cylinder3;whiteSpace=wrap;html=1;boundedLbl=1;backgroundOutline=1;size=15;" parent="WIyWlLk6GJQsqaUBKTNV-1" vertex="1">
          <mxGeometry x="100" y="110" width="60" height="80" as="geometry" />
        </mxCell>
        <mxCell id="Dt_UoThpGrqsOZfqZ3MJ-23" value="Main()" style="swimlane;fontStyle=0;childLayout=stackLayout;horizontal=1;startSize=30;horizontalStack=0;resizeParent=1;resizeParentMax=0;resizeLast=0;collapsible=1;marginBottom=0;whiteSpace=wrap;html=1;" parent="WIyWlLk6GJQsqaUBKTNV-1" vertex="1">
          <mxGeometry x="140" y="500" width="140" height="90" as="geometry" />
        </mxCell>
        <mxCell id="Dt_UoThpGrqsOZfqZ3MJ-25" value="Game Loop" style="text;strokeColor=none;fillColor=none;align=left;verticalAlign=middle;spacingLeft=4;spacingRight=4;overflow=hidden;points=[[0,0.5],[1,0.5]];portConstraint=eastwest;rotatable=0;whiteSpace=wrap;html=1;" parent="Dt_UoThpGrqsOZfqZ3MJ-23" vertex="1">
          <mxGeometry y="30" width="140" height="30" as="geometry" />
        </mxCell>
        <mxCell id="Dt_UoThpGrqsOZfqZ3MJ-26" value="Item 3" style="text;strokeColor=none;fillColor=none;align=left;verticalAlign=middle;spacingLeft=4;spacingRight=4;overflow=hidden;points=[[0,0.5],[1,0.5]];portConstraint=eastwest;rotatable=0;whiteSpace=wrap;html=1;" parent="Dt_UoThpGrqsOZfqZ3MJ-23" vertex="1">
          <mxGeometry y="60" width="140" height="30" as="geometry" />
        </mxCell>
        <mxCell id="Dt_UoThpGrqsOZfqZ3MJ-35" value="Store Images within a Json type line which will be faster to navigate through -&amp;gt; Dict in Python" style="text;html=1;strokeColor=none;fillColor=none;align=center;verticalAlign=middle;whiteSpace=wrap;rounded=0;" parent="WIyWlLk6GJQsqaUBKTNV-1" vertex="1">
          <mxGeometry x="456.5" y="147" width="277" height="43" as="geometry" />
        </mxCell>
        <mxCell id="Dt_UoThpGrqsOZfqZ3MJ-37" value="{playerSprite: #; pos: list [x,y]; health: int hp; projectiles: list[[[x, y], direction, timer]]}" style="shape=process;whiteSpace=wrap;html=1;backgroundOutline=1;size=0.02127659574468085;" parent="WIyWlLk6GJQsqaUBKTNV-1" vertex="1">
          <mxGeometry x="360" y="190" width="470" height="60" as="geometry" />
        </mxCell>
        <mxCell id="x6oMDjF_ISiyXy15LSl8-0" value="&#xa;&#xa;pseudo code" style="swimlane;startSize=0;fontSize=16;" vertex="1" parent="WIyWlLk6GJQsqaUBKTNV-1">
          <mxGeometry x="510" y="290" width="200" height="200" as="geometry" />
        </mxCell>
      </root>
    </mxGraphModel>
  </diagram>
</mxfile>
